# xmcd
#
# Track frame offsets: 
#        150
#        19875
#        41788
#        69150
#        91743
#        108653
#        132440
#        146770
#        162338
#
# Disc length: 2420 seconds
#
# Revision: 2
# Processed by: cddbd v1.5.2PL0 Copyright (c) Steve Scherf et al.
# Submitted via: ExactAudioCopy v1.3
#
DISCID=7b097209
DTITLE=Buster Benton - I Like to Hear My Guitar Sing
DYEAR=1991
DGENRE=Blues
TTITLE0=I Gotta Find Me a Big Leg Woman
TTITLE1=My Friends Call Me Crazy
TTITLE2=Little Bluebird
TTITLE3=How Old Buster Feels
TTITLE4=Dust My Broom
TTITLE5=A Woman Can't Live On Love Alone
TTITLE6=Feels So Bad
TTITLE7=Sail On (Honey Bee)
TTITLE8=I Like To Hear My Guitar Sing
EXTD=
EXTT0=
EXTT1=
EXTT2=
EXTT3=
EXTT4=
EXTT5=
EXTT6=
EXTT7=
EXTT8=
PLAYORDER=
